<?xml version="1.0" encoding="UTF-8"?>
<svg id="_レイヤー_2" data-name="レイヤー 2" xmlns="http://www.w3.org/2000/svg" viewBox="0 0 1984.8 221.4">
  <g id="ob01">
    <g>
      <path d="M1703.49,82.32l-15.29,60.48-17.03,67.99c-.42,4.83-4.39,9.27-9.63,9.26l-47.64-.04c-3.58,0-5.88-4.61-5.1-7.66l33.25-129.57-25.48-.43c-3.55-.06-6.12-3.03-5.33-6.59l7.78-35.11c1.12-5.07,6.42-5.6,10.55-5.65l25.11-.32,4.31-18.06c.55-2.32,4.2-6.43,6.55-6.44l47.22-.2c4.05-.02,7.47,2.62,6.57,7.08l-3.6,17.85,109.92-.05c3.73,0,4.95,4.88,4.41,7.54l-9.03,44.17-25.13,121.79c-1.24,6-2.87,11.72-10.41,11.73l-43.84.05c-1.63,0-4.8-1.64-5.5-2.94-.75-1.39-.9-3.9-.77-6.22l26.31-128.55-58.19-.12Z"/>
      <path d="M1131.79,106.89c6.25,7.49,9.79,13.32,8.02,22.55,2.32-.09,2.86-1.21,8.12-3.02l11.74-3.09,13.73-4.31,14.55-5.5c2.96-1.12,5.04,4.15,4.65,6.28l-3.37,18.29c-.56,3.05-5.33,6.46-8.2,7.33l-21.21,6.45,17.65,26.62c.97,1.47,3.15,5.05,2.88,6.79l-4.51,28.98c-.12.78-.57,2.66-1.2,2.71l-3.83.29-26.89-34.32c-4.96-6.57-6.76-13.04-9.61-21.88l-9.86,55.08c-.31,1.3-3.4,5.13-5.17,5.13l-50.7.1c-2.36,0-5.16-2.73-4.81-4.87l2.99-17.96-49.16,15.75-4.02-.32c-.89-.07-1.39-2.84-1.2-3.82l2.68-13.71c.57-2.89,4.38-5.64,7.27-6.56l69.75-22.27.55-7.81-66.84,19.55c-1.33.39-3.19.67-4.14.45-1.14-.27-2.38-3.32-2.12-4.58l2.94-14.28c.68-3.31,4.77-5.12,7.82-6.06l68.15-21.03c1.49-1.82,2.12-5.05,1.27-7.94l-67.44,19.01c-1.2.34-3.48.14-4.28-.47s-1.63-3.13-1.44-4.24l1.97-11.05c.66-3.67,2.31-6.8,6.1-7.98l45.7-14.22-36.78-.44c-1.51-.02-4.23-.67-5.26-1.39-1.21-.84-2.08-4.18-1.77-5.88l6.73-36.99c-4.91-6.37-1.69-13.34,3.56-19.88l26.73-33.36c2.55-3.19,5.32-8.93,10.11-8.91l34.56.08c1.31,2.03,3.3,3.52,5.34,3.51l61.16-.14c3.23,0,8.2,1.23,7.34,5.8l-2.52,13.42-15.46,19.31,25.75.18c1.96.01,3.68,4.83,3.29,6.95l-9.7,52.71c-.65,3.56-5.7,4.74-8.73,4.79l-52.89.15ZM1131.26,42.07l9.15-12.99-39.45-.04-9.77,13.09,40.07-.06ZM1100.51,80.31l2.09-12.97-20.32.17-2.55,12.86,20.78-.06ZM1158.33,80.33l1.87-13.07-19.62.31-2.23,12.74,19.98.03Z"/>
      <path d="M739.47,175.01c-2.11,0-4.44-1.31-5.1-2.33s-.98-3.87-.68-5.44l20.11-105.9c.74-3.87,1.59-10.08,6.93-10.13l36.72-.36,3.37-16.59-6.24-.83-69.78.13c-5.85.01-11.9.48-17.54-.69-1.26-1.88-2.01-5.56-1.68-7.43l2.96-16.46c.7-3.89,3.12-8.77,8.32-8.77h225.65c3.75,0,5.5,3.91,5,6.78l-3.24,18.95c-.57,3.35-2.25,7.4-6.7,7.41l-91.36.14-3.63,17.46,37.17.21c3.68.02,5.05,4.41,4.44,7.58l-20.54,107.38c-1.14,5.95-3.41,8.8-10.11,8.81l-114.07.08ZM792.4,98.99l3.55-19.08-9.58.08-3.37,19.2,9.4-.2ZM840.5,98.98l3.62-18.91-9.6-.1-3.55,19.12,9.53-.11ZM783.67,146.22l3.42-19.07-9.51.04-3.39,19.11,9.48-.07ZM831.73,145.13l3.23-18.03-9.76.27-3.39,18.95c3.96.52,7.95.49,9.93-1.19Z"/>
      <path d="M519.23,216.27c-2.08,2.69-6.44,4.96-9.47,4.96h-54.11c-1.4,0-4.08-1.1-4.53-2.25s-.34-3.81-.09-5.57l73.03-90.67-47.34-61.52c-2.02-2.62-3.49-5.24-2.95-8.25.42-2.35,3.86-5.78,6.87-5.78l50.07-.03c3.2,0,5.65,3.43,7.33,5.65l19.67,25.99,17.2-22.4,32.82-42.08c1.49-1.91,4.69-3.54,6.88-4.14h54.14c1.59.54,3.94,1.93,4.51,3.15s-.07,4.25-.64,5.53l-8.36,10.19-61.35,78.75,52.19,65.02c1.1,1.37.1,5.91-.9,7.34-1.11,1.58-4.45,3.76-6.82,3.77l-44.72.17c-5.34.02-8.45-3.61-11.42-7.42l-20.54-26.43-20.79,26.23-30.67,39.81Z"/>
      <path d="M1214.19,221.26c-1.86,0-4.82-1.04-5.12-2.24s-.3-3.82-.22-5.59l31.19-37.89,41.29-52.49-11.34-15.26-39.26-51.73c-.39-4.22,3.81-8.83,7.9-8.84l49.96-.12c3.57,1.6,5.58,4.29,7.93,7.33l18.93,24.5,48.33-62.5c2.89-3.74,5.72-6.29,10.88-6.28l52.08.1c1.37,0,3.8,2.04,4.28,3.25s.27,4.14-.75,5.43l-69.7,88.77,51.9,64.63c1.23,1.53.46,6.84-.72,8.34s-4.52,3.05-6.99,3.04l-40.99-.28c-6.76,1.63-10.81-2.01-14.57-6.77l-20.98-26.56-49.11,63.51c-2.51,3.25-5.91,7.51-10.46,7.52l-54.46.12Z"/>
      <path d="M930.32,55.27c1.49,0,4.19,1.13,4.92,1.99.86,1.01,1.24,3.67.91,5.36l-12.78,66.47-16.28,85.53c-.61,3.2-3.88,6.66-7.6,6.66l-221.67.02c-4.28,0-5.91-4.53-5.21-8.24l28.44-151.38c.51-2.69,4.13-6.24,6.65-6.25l30-.16c1.27,0,3.8,1.13,4.57,2,.9,1.01,1.41,3.81,1.06,5.64l-23.94,126.71,145.16.05c1.47,0,3.99-.55,4.72-1.28s.95-2.5,1.29-4.28l22.88-119.91c.84-4.42,3.27-8.84,8.25-8.86l28.61-.08Z"/>
      <path d="M142.09,145.25c-4.21,0-6.6-4.48-5.6-7.99l11.55-40.67,10.94-39.75-151.24.12c-3.7,0-8.53-2.02-7.64-6.48l6.13-30.62c1.25-6.23,6.07-9.66,12.57-9.66l206.53.06c3.51,0,6.24,3.97,5.43,6.85l-12.49,43.9-22.44,77.5c-.87,3.01-4.97,6.63-8.11,6.63l-45.64.1Z"/>
      <path d="M412.84,214.2h-192.98c-3.86,0-6.96-3.27-6.22-6.99l7.25-36.75c1.04-5.27,5.68-7.42,10.92-7.42l189.73-.02c2.21,0,4.78.85,5.79,2.04.91,1.08,1.34,4.07,1.02,5.72l-6.79,34.4c-.9,4.58-2.89,8.05-8.71,9.04Z"/>
      <path d="M961.98,221.4c-2.8.01-6.03-2.23-5.45-5.34l9.75-52.22,8.13-44.36-11.12,10.5-10.67,1.09c-5,.51.95-8.75,1.52-17.18.45-6.58,2.69-10.92,5.74-16.59l48.44-90.28C1010.62,2.75,1012.23-.03,1017.74,0l27.07.13c1.18,0,3.34.75,4.03,1.51.83.91,1.11,4.08.5,5.27l-7.82,15.2-30.61,57.31,7.76.97c1.35.17,3.02,3.16,2.71,4.77l-24.99,128.82c-.86,4.42-2.76,7.3-7.77,7.32l-26.63.1Z"/>
      <path d="M427.86,81.17l-174.94.02c-2.73,0-5.1-4.74-4.74-6.71l6.76-37.12c.56-3.07,4.18-7.04,8.05-7.04l175.39-.07c2.77,0,6,3.51,5.54,5.85l-6.95,35.49c-.81,4.15-2.84,9.59-9.1,9.59Z"/>
      <path d="M79.23,215.77c-1.05,3.39-6.53,4.75-9.52,5.25l-42.28-.22c-2.57,1.33-10.92-1.47-9.65-5.57l38.32-123.46c1.73-5.59,4.21-9.48,10.66-9.49l44.04-.02c2.59,0,8.52,2.43,7.48,5.89l-14.71,49.09-24.33,78.53Z"/>
      <path d="M1577.83,131.02c-.71,3.51-3.73,7.69-7.87,7.7l-128.46.13c-3.56,0-7.41-2.96-6.74-6.42l6.55-33.67c.72-3.71,3.61-7.9,7.99-7.93l36.39-.32h48.97s43.04,0,43.04,0c1.78,0,4.79,1.46,5.69,2.72.96,1.33,1.14,4.52.78,6.34l-6.32,31.47Z"/>
      <path d="M1977.73,131.3c-.76,3.73-3.65,7.32-8.16,7.32l-129.08.19c-2.71,0-7.15-2.81-6.6-5.61l6.81-35.03c.5-2.58,4.54-7.35,7.38-7.37l43.65-.38,86.85.08c3.56,0,6.89,2.89,6.1,6.77l-6.95,34.04Z"/>
    </g>
  </g>
</svg>